<svg width="24" height="24" viewBox="0 0 24 24" fill="none" xmlns="http://www.w3.org/2000/svg">
<path d="M16.9768 19.4999C18.734 18.3363 20.0271 16.5929 20.6307 14.5737C21.2343 12.5544 21.1101 10.3874 20.2798 8.45034C19.4495 6.51327 17.9657 4.92902 16.0871 3.97374C14.2085 3.01847 12.0543 2.75276 9.99985 3.22293M20.4998 19.4999H16.9768V15.9999M6.99985 4.51593C5.24875 5.68384 3.96239 7.42855 3.36445 9.44667C2.76651 11.4648 2.89482 13.6286 3.72707 15.562C4.55932 17.4953 6.04285 19.0757 7.9197 20.0285C9.79655 20.9813 11.948 21.2461 13.9998 20.7769M3.49985 4.51593H6.99985V7.99993" stroke="white" stroke-width="1.5" stroke-linecap="round" stroke-linejoin="round"/>
</svg>
